<?xml version="1.0" encoding="iso-8859-1"?>
<!-- Uploaded to: SVG Repo, www.svgrepo.com, Generator: SVG Repo Mixer Tools -->
<svg height="800px" width="800px" version="1.1" id="Layer_1" xmlns="http://www.w3.org/2000/svg" xmlns:xlink="http://www.w3.org/1999/xlink" 
	 viewBox="0 0 512 512" xml:space="preserve">
<path style="fill:#F8E99B;" d="M365.714,243.81C305.12,243.81,256,194.689,256,134.096l0,0c0,60.593-49.12,109.713-109.714,109.713
	S36.571,194.689,36.571,134.096l0,0v304.761h438.857V134.096l0,0C475.429,194.689,426.308,243.81,365.714,243.81z"/>
<path style="fill:#F6E27D;" d="M475.429,134.095c0,60.594-49.12,109.713-109.714,109.713S256,194.689,256,134.095v304.762h219.429
	V134.095z"/>
<g>
	<circle style="fill:#F8E99B;" cx="36.571" cy="109.714" r="36.571"/>
	<circle style="fill:#F8E99B;" cx="256" cy="109.714" r="36.571"/>
	<circle style="fill:#F8E99B;" cx="475.429" cy="109.714" r="36.571"/>
</g>
<g>
	<path style="fill:#F6E27D;" d="M36.571,73.143v73.143c20.197,0,36.571-16.374,36.571-36.571S56.769,73.143,36.571,73.143z"/>
	<path style="fill:#F6E27D;" d="M256,73.143v73.143c20.197,0,36.571-16.374,36.571-36.571S276.197,73.143,256,73.143z"/>
	<path style="fill:#F6E27D;" d="M475.429,73.143v73.143c20.197,0,36.571-16.374,36.571-36.571S495.626,73.143,475.429,73.143z"/>
</g>
<path style="fill:#E07188;" d="M109.702,396.192c-6.512,0-12.635-2.537-17.241-7.141c-9.505-9.51-9.504-24.976,0-34.48
	c4.604-4.606,10.728-7.141,17.24-7.141s12.635,2.536,17.24,7.141c9.506,9.506,9.506,24.973,0,34.48
	C122.34,393.654,116.217,396.192,109.702,396.192z"/>
<path style="fill:#E02753;" d="M126.942,354.57c-4.604-4.606-10.728-7.141-17.24-7.141v48.762c6.515,0,12.638-2.538,17.24-7.141
	C136.448,379.543,136.448,364.076,126.942,354.57z"/>
<path style="fill:#95D5A7;" d="M207.226,396.192c-6.512,0-12.635-2.537-17.24-7.141c-9.505-9.51-9.504-24.976,0-34.48
	c4.604-4.606,10.728-7.141,17.24-7.141s12.635,2.536,17.24,7.141c9.506,9.506,9.506,24.973,0,34.48
	C219.864,393.654,213.741,396.192,207.226,396.192z"/>
<path style="fill:#80CB93;" d="M224.466,354.57c-4.604-4.606-10.728-7.141-17.24-7.141v48.762c6.515,0,12.638-2.538,17.24-7.141
	C233.972,379.543,233.972,364.076,224.466,354.57z"/>
<path style="fill:#E07188;" d="M304.75,396.192c-6.512,0-12.635-2.537-17.241-7.141c-9.505-9.51-9.504-24.976,0-34.48
	c4.604-4.606,10.728-7.141,17.24-7.141s12.635,2.536,17.24,7.141c9.506,9.506,9.506,24.973,0,34.48
	C317.388,393.654,311.264,396.192,304.75,396.192z"/>
<path style="fill:#E02753;" d="M321.989,354.57c-4.604-4.606-10.728-7.141-17.24-7.141v48.762c6.515,0,12.638-2.538,17.24-7.141
	C331.496,379.543,331.496,364.076,321.989,354.57z"/>
<path style="fill:#95D5A7;" d="M402.274,396.192c-6.512,0-12.635-2.537-17.241-7.141c-9.505-9.51-9.504-24.976,0-34.48
	c4.604-4.606,10.728-7.141,17.24-7.141c6.512,0,12.635,2.536,17.24,7.141c9.506,9.506,9.506,24.973,0,34.48
	C414.911,393.654,408.788,396.192,402.274,396.192z"/>
<path style="fill:#80CB93;" d="M419.513,354.57c-4.604-4.606-10.728-7.141-17.24-7.141v48.762c6.515,0,12.638-2.538,17.24-7.141
	C429.019,379.543,429.019,364.076,419.513,354.57z"/>
</svg>